<svg xmlns="http://www.w3.org/2000/svg" version="1.1" xmlns:xlink="http://www.w3.org/1999/xlink" xmlns:svgjs="http://svgjs.dev/svgjs" width="2000" height="2250" viewBox="0 0 2000 2250"><g transform="matrix(1,0,0,1,0.0011525275272106228,0)"><svg viewBox="0 0 320 360" data-background-color="#4b91f1" preserveAspectRatio="xMidYMid meet" height="2250" width="2000" xmlns="http://www.w3.org/2000/svg" xmlns:xlink="http://www.w3.org/1999/xlink"><g id="tight-bounds" transform="matrix(1,0,0,1,0.00018440440442191175,0)"><svg viewBox="0 0 320 360" height="360" width="320"><g><svg></svg></g><g><svg viewBox="0 0 320 360" height="360" width="320"><g><path xmlns="http://www.w3.org/2000/svg" d="M294.684 112.125c-8.775-10.699-25.381-16.201-43-22.006-7.56-2.498-15.357-5.097-22.985-8.235-7.695-3.173-15.256-7.257-22.613-11.172-14.952-8.033-30.41-16.336-46.105-16.336-15.661 0-31.119 8.303-46.071 16.336-7.358 3.949-14.952 8.033-22.648 11.205-7.594 3.139-15.425 5.704-22.985 8.236-17.618 5.839-34.224 11.341-42.999 22.006-11.712 14.277-11.442 35.439-11.172 57.817 0.034 3.375 0.068 6.717 0.067 10.024 0 3.308-0.034 6.649-0.101 10.024-0.27 22.411-0.54 43.54 11.172 57.851 8.775 10.666 25.381 16.167 42.966 22.006 7.56 2.498 15.357 5.097 23.019 8.235 7.695 3.173 15.256 7.223 22.579 11.172 14.986 8.067 30.444 16.37 46.105 16.37 15.695 0 31.153-8.303 46.105-16.336 7.358-3.949 14.918-8.033 22.614-11.172 7.594-3.139 15.357-5.704 22.884-8.202 17.72-5.873 34.326-11.374 43.101-22.039 11.712-14.277 11.442-35.439 11.171-57.817-0.034-3.409-0.101-6.75-0.101-10.058 0-3.308 0.034-6.649 0.101-9.991 0.371-22.479 0.641-43.641-11.104-57.918zM305.552 103.215c-15.728-19.171-45.801-23.727-71.486-34.326-22.985-9.45-46.375-28.588-74.051-28.587-27.676 0-51.066 19.137-74.052 28.587-25.719 10.598-55.758 15.155-71.486 34.326-17.078 20.791-14.311 50.121-14.311 76.785 0 26.63-2.768 55.994 14.277 76.785 15.728 19.171 45.801 23.727 71.487 34.326 22.985 9.484 46.375 28.588 74.051 28.587 27.676 0 51.066-19.103 74.051-28.587 25.719-10.598 55.758-15.155 71.486-34.326 17.045-20.791 14.277-50.121 14.277-76.785 0.068-26.664 2.835-55.994-14.243-76.785zM309.872 189.923c0.304 23.221 0.574 45.059-12.083 60.483-9.518 11.577-26.664 17.281-44.822 23.289-7.56 2.498-15.29 5.063-22.715 8.134-7.493 3.071-14.952 7.088-22.175 10.969-15.458 8.303-31.355 16.842-48.062 16.842-16.707 0-32.604-8.539-47.995-16.808-7.257-3.915-14.75-7.932-22.243-11.003-7.527-3.105-15.256-5.67-22.748-8.134-18.192-6.008-35.338-11.712-44.823-23.289-12.623-15.391-12.353-37.262-12.083-60.415 0.034-3.375 0.101-6.683 0.101-9.991 0-3.308-0.034-6.615-0.067-9.991-0.304-23.154-0.574-45.025 12.083-60.415 9.518-11.577 26.664-17.247 44.822-23.289 7.527-2.498 15.256-5.063 22.749-8.134 7.493-3.105 14.986-7.122 22.242-11.003 15.391-8.269 31.322-16.842 47.995-16.842 16.673 0 32.604 8.539 47.995 16.808 7.257 3.915 14.75 7.932 22.243 11.003 7.493 3.105 15.256 5.637 22.715 8.134 18.158 6.008 35.338 11.712 44.822 23.289 12.657 15.425 12.387 37.262 12.083 60.416-0.034 3.409-0.101 6.717-0.101 9.99 0 3.308 0.034 6.615 0.067 9.957z" fill="#77d4fc" fill-rule="nonzero" stroke="none" stroke-width="1" stroke-linecap="butt" stroke-linejoin="miter" stroke-miterlimit="10" stroke-dasharray="" stroke-dashoffset="0" font-family="none" font-weight="none" font-size="none" text-anchor="none" style="mix-blend-mode: normal" data-fill-palette-color="tertiary"></path></g><g transform="matrix(1,0,0,1,64,118.32465380903689)"><svg viewBox="0 0 192 123.35069238192622" height="123.35069238192622" width="192"><g><svg viewBox="0 0 192 123.35069238192622" height="123.35069238192622" width="192"><g transform="matrix(1,0,0,1,0,92.51360519110129)"><svg viewBox="0 0 192 30.83708719082493" height="30.83708719082493" width="192"><g id="textblocktransform"><svg viewBox="0 0 192 30.83708719082493" height="30.83708719082493" width="192" id="textblock"><g><svg viewBox="0 0 192 30.83708719082493" height="30.83708719082493" width="192"><g transform="matrix(1,0,0,1,0,0)"><svg width="192" viewBox="4.199999809265137 -40.45000076293945 296.0384216308594 47.54999923706055" height="30.83708719082493" data-palette-color="#4b91f1"><path d="M10.15-37.55L10.15-2.1Q10.15 0.3 7.15 0.3L7.15 0.3Q4.2 0.3 4.2-2.1L4.2-2.1 4.2-37.55Q4.2-39.95 7.15-39.95L7.15-39.95Q10.15-39.95 10.15-37.55L10.15-37.55ZM33.2-1.95L33.2-21.75Q33.2-22.4 33-23.03 32.8-23.65 32.5-24.2L32.5-24.2Q31.85-25.4 29.8-25.4L29.8-25.4 26.6-25.4Q24.55-25.4 23.85-24.2L23.85-24.2Q23.25-23.05 23.25-21.75L23.25-21.75 23.25-1.95Q23.25 0.4 20.5 0.4L20.5 0.4Q17.65 0.4 17.65-1.95L17.65-1.95 17.65-22.2Q17.65-26.3 20.35-28.2L20.35-28.2Q23.1-30.1 25.7-30.1L25.7-30.1 30.75-30.1Q31.9-30.1 33.3-29.65 34.7-29.2 36-28.25L36-28.25Q37.25-29.2 38.62-29.65 40-30.1 41.25-30.1L41.25-30.1 46.25-30.1Q48.9-30.1 51.55-28.2L51.55-28.2Q54.3-26.35 54.3-22.2L54.3-22.2 54.3-1.95Q54.3 0.4 51.5 0.4L51.5 0.4Q48.7 0.4 48.7-1.95L48.7-1.95 48.7-21.75Q48.7-22.4 48.55-23.05 48.4-23.7 48-24.25L48-24.25 48.05-24.2Q47.65-24.85 47.05-25.13 46.45-25.4 45.3-25.4L45.3-25.4 42.15-25.4Q40.05-25.4 39.4-24.2L39.4-24.2Q38.75-23.1 38.75-21.75L38.75-21.75 38.75-1.95Q38.75 0.4 36 0.4L36 0.4Q33.2 0.4 33.2-1.95L33.2-1.95ZM74.5 0L67.95 0Q66.4 0 65-0.43 63.6-0.85 62.3-1.65L62.3-1.65 62.3-1.6Q59.85-3.15 59.85-7.3L59.85-7.3 59.85-9.75Q59.85-11.8 60.57-13.33 61.3-14.85 62.6-15.75L62.6-15.75 62.55-15.75Q63.8-16.6 65.2-17.03 66.59-17.45 67.9-17.45L67.9-17.45 78.95-17.45 78.95-22.1Q78.95-23.35 78.17-24.38 77.4-25.4 75.55-25.4L75.55-25.4 69.7-25.4Q67.8-25.4 67.07-24.48 66.34-23.55 66.34-22.3L66.34-22.3 66.34-21.9Q66.34-19.3 63.55-19.3L63.55-19.3Q60.75-19.3 60.75-21.9L60.75-21.9 60.75-22.35Q60.75-24.4 61.47-25.8 62.2-27.2 63.45-28.15L63.45-28.15 63.4-28.15Q64.7-29 66.12-29.55 67.55-30.1 68.84-30.1L68.84-30.1 76.45-30.1Q77.7-30.1 79.12-29.55 80.55-29 81.8-28.15L81.8-28.15 81.75-28.15Q83.05-27.2 83.75-25.68 84.45-24.15 84.45-22.15L84.45-22.15 84.45-2.1Q84.45 0.3 81.7 0.3L81.7 0.3Q81.15 0.3 80.67 0.25 80.2 0.2 79.82-0.03 79.45-0.25 79.22-0.68 79-1.1 79-1.8L79-1.8 78.95-12.75 68.84-12.75Q67.75-12.75 67.15-12.5 66.55-12.25 66.2-11.7L66.2-11.7Q65.8-10.85 65.62-10.38 65.45-9.9 65.45-9.3L65.45-9.3 65.45-7.35Q65.45-6.05 66.22-5.38 67-4.7 68.9-4.7L68.9-4.7 74.5-4.7Q76.34-4.7 76.34-2.35L76.34-2.35Q76.34-1.35 75.9-0.68 75.45 0 74.5 0L74.5 0ZM104.99-3.5L98.94-3.5Q97.64-3.5 96.27-3.95 94.89-4.4 93.59-5.25L93.59-5.25Q90.89-7 90.89-11.15L90.89-11.15 90.89-22.45Q90.89-24.55 91.62-26.05 92.34-27.55 93.59-28.4L93.59-28.4Q94.89-29.2 96.24-29.65 97.59-30.1 98.89-30.1L98.89-30.1 107.29-30.1Q108.54-30.1 109.89-29.55 111.24-29 112.39-28.15L112.39-28.15Q113.54-27.2 114.24-25.65 114.94-24.1 114.94-22.15L114.94-22.15 114.94-0.95Q114.94 1.15 114.27 2.63 113.59 4.1 112.39 5.1L112.39 5.1Q111.24 6.05 109.92 6.58 108.59 7.1 107.29 7.1L107.29 7.1 98.89 7.1Q96.24 7.1 93.54 5.55L93.54 5.55Q92.14 4.75 91.52 3.5 90.89 2.25 90.89 0.6L90.89 0.6 90.89 0Q90.89-1 91.54-1.6 92.19-2.2 93.59-2.2L93.59-2.2Q96.39-1.9 96.39 0L96.39 0 96.39 0.55Q96.39 1.1 97.17 1.75 97.94 2.4 99.79 2.4L99.79 2.4 106.04 2.4Q107.89 2.4 108.67 1.35 109.44 0.3 109.44-1L109.44-1 109.44-22.1Q109.44-23.35 108.67-24.38 107.89-25.4 106.04-25.4L106.04-25.4 99.79-25.4Q97.94-25.4 97.17-24.38 96.39-23.35 96.39-22.1L96.39-22.1 96.39-11.55Q96.39-10.3 97.17-9.22 97.94-8.15 99.79-8.15L99.79-8.15 104.99-8.15Q106.79-8.15 106.79-5.85L106.79-5.85Q106.79-4.8 106.37-4.15 105.94-3.5 104.99-3.5L104.99-3.5ZM127.14-22.15L127.14-8Q127.14-6.8 127.92-5.75 128.69-4.7 130.54-4.7L130.54-4.7 136.79-4.7Q138.64-4.7 139.42-5.63 140.19-6.55 140.19-7.75L140.19-7.75 140.19-8.3Q140.19-10.65 142.94-10.65L142.94-10.65Q145.69-10.65 145.69-8.3L145.69-8.3 145.69-7.7Q145.69-5.6 145.02-4.25 144.34-2.9 142.99-1.9L142.99-1.9Q140.34 0 137.69 0L137.69 0 129.29 0Q126.64 0 124.14-1.9L124.14-1.9Q122.94-2.9 122.29-4.42 121.64-5.95 121.64-7.95L121.64-7.95 121.64-22.2Q121.64-26.25 124.14-28.2L124.14-28.2Q125.39-29.1 126.72-29.63 128.04-30.15 129.29-30.15L129.29-30.15 137.69-30.15Q138.89-30.15 140.34-29.68 141.79-29.2 143.04-28.4L143.04-28.4Q144.24-27.55 144.97-26.05 145.69-24.55 145.69-22.5L145.69-22.5 145.69-15.75Q145.69-14.6 145.02-13.7 144.34-12.8 142.54-12.8L142.54-12.8 131.74-12.8Q129.94-12.8 129.84-15.15L129.84-15.15Q129.84-17.5 131.74-17.5L131.74-17.5 140.24-17.5 140.19-22.15Q140.19-23.4 139.42-24.43 138.64-25.45 136.79-25.45L136.79-25.45 130.54-25.45Q128.69-25.45 127.92-24.43 127.14-23.4 127.14-22.15L127.14-22.15ZM176.64-1.2L165.64-34.8 154.69-1.2 154.69-1.25Q154.39-0.5 153.86-0.03 153.34 0.45 152.59 0.45L152.59 0.45Q152.19 0.45 151.81 0.38 151.44 0.3 151.04 0.2L151.04 0.2 151.09 0.2Q148.24-0.7 148.99-3L148.99-3 160.39-37.65Q160.64-38.45 161.26-39 161.89-39.55 162.74-39.65L162.74-39.65Q163.59-39.8 164.39-39.88 165.19-39.95 165.64-39.95L165.64-39.95Q166.09-39.95 166.89-39.88 167.69-39.8 168.54-39.7L168.54-39.7Q169.24-39.6 169.91-38.95 170.59-38.3 170.94-37.65L170.94-37.65Q173.74-29.05 176.61-20.33 179.49-11.6 182.29-3L182.29-3Q182.99-0.7 180.19 0.2L180.19 0.2Q179.79 0.3 179.46 0.38 179.14 0.45 178.74 0.45L178.74 0.45Q178.04 0.45 177.46-0.03 176.89-0.5 176.64-1.25L176.64-1.25 176.64-1.2ZM169.39-12L169.39-12Q169.39-10.4 168.26-9.28 167.14-8.15 165.54-8.15L165.54-8.15Q163.94-8.15 162.84-9.28 161.74-10.4 161.74-12L161.74-12Q161.74-13.6 162.84-14.73 163.94-15.85 165.54-15.85L165.54-15.85Q167.14-15.85 168.26-14.73 169.39-13.6 169.39-12ZM191.99-27.9L191.99-2.1Q191.99 0.3 189.24 0.3L189.24 0.3Q186.44 0.3 186.44-2.1L186.44-2.1 186.44-27.9Q186.44-30.3 189.24-30.3L189.24-30.3Q191.99-30.3 191.99-27.9L191.99-27.9ZM193.04-36.6L193.04-36.6Q193.04-35 191.94-33.9 190.84-32.8 189.24-32.8L189.24-32.8Q187.64-32.8 186.51-33.9 185.39-35 185.39-36.6L185.39-36.6Q185.39-38.25 186.51-39.35 187.64-40.45 189.24-40.45L189.24-40.45Q190.84-40.45 191.94-39.35 193.04-38.25 193.04-36.6ZM204.43-21.75L204.43-2.1Q204.43 0.3 201.68 0.3L201.68 0.3Q198.93 0.3 198.93-2.1L198.93-2.1 198.93-22.2Q198.93-24.25 199.58-25.75 200.23-27.25 201.63-28.2L201.63-28.2Q204.28-30.1 206.93-30.1L206.93-30.1 214.98-30.1Q217.53-30.1 220.28-28.2L220.28-28.2Q222.98-26.3 222.98-22.2L222.98-22.2 222.98-2.1Q222.98 0.3 220.23 0.3L220.23 0.3Q217.48 0.3 217.48-2.1L217.48-2.1 217.48-21.75Q217.48-23.05 216.68-24.25L216.68-24.25 216.73-24.2Q216.08-25.4 214.08-25.4L214.08-25.4 207.83-25.4Q205.78-25.4 205.13-24.2L205.13-24.2Q204.43-23.15 204.43-21.75L204.43-21.75ZM243.53 0L236.98 0Q235.43 0 234.03-0.43 232.63-0.85 231.33-1.65L231.33-1.65 231.33-1.6Q228.88-3.15 228.88-7.3L228.88-7.3 228.88-9.75Q228.88-11.8 229.61-13.33 230.33-14.85 231.63-15.75L231.63-15.75 231.58-15.75Q232.83-16.6 234.23-17.03 235.63-17.45 236.93-17.45L236.93-17.45 247.98-17.45 247.98-22.1Q247.98-23.35 247.21-24.38 246.43-25.4 244.58-25.4L244.58-25.4 238.73-25.4Q236.83-25.4 236.11-24.48 235.38-23.55 235.38-22.3L235.38-22.3 235.38-21.9Q235.38-19.3 232.58-19.3L232.58-19.3Q229.78-19.3 229.78-21.9L229.78-21.9 229.78-22.35Q229.78-24.4 230.51-25.8 231.23-27.2 232.48-28.15L232.48-28.15 232.43-28.15Q233.73-29 235.16-29.55 236.58-30.1 237.88-30.1L237.88-30.1 245.48-30.1Q246.73-30.1 248.16-29.55 249.58-29 250.83-28.15L250.83-28.15 250.78-28.15Q252.08-27.2 252.78-25.68 253.48-24.15 253.48-22.15L253.48-22.15 253.48-2.1Q253.48 0.3 250.73 0.3L250.73 0.3Q250.18 0.3 249.71 0.25 249.23 0.2 248.86-0.03 248.48-0.25 248.26-0.68 248.03-1.1 248.03-1.8L248.03-1.8 247.98-12.75 237.88-12.75Q236.78-12.75 236.18-12.5 235.58-12.25 235.23-11.7L235.23-11.7Q234.83-10.85 234.66-10.38 234.48-9.9 234.48-9.3L234.48-9.3 234.48-7.35Q234.48-6.05 235.26-5.38 236.03-4.7 237.93-4.7L237.93-4.7 243.53-4.7Q245.38-4.7 245.38-2.35L245.38-2.35Q245.38-1.35 244.93-0.68 244.48 0 243.53 0L243.53 0ZM265.33-22.75L265.33-2.1Q265.33 0.3 262.58 0.3L262.58 0.3Q259.73 0.3 259.73-2.1L259.73-2.1 259.73-22.8Q259.73-26.9 262.18-28.5L262.18-28.5Q264.63-30.1 267.83-30.1L267.83-30.1 273.53-30.1Q275.38-30.1 275.38-27.75L275.38-27.75Q275.48-25.4 273.53-25.4L273.53-25.4 268.23-25.4Q266.43-25.4 265.88-24.7 265.33-24 265.33-22.75L265.33-22.75ZM283.82 7L281.22 7Q279.47 7 279.38 4.65L279.38 4.65Q279.38 2.3 281.22 2.3L281.22 2.3 283.43 2.3Q285.18 2.3 285.72 1.25L285.72 1.25 286.43-0.6 286.68-1.4 276.93-26.95 276.93-26.9Q276.52-28.1 277.1-28.95 277.68-29.8 278.88-30.2L278.88-30.2Q279.77-30.45 280.32-30.45L280.32-30.45Q281.77-30.45 282.13-28.75L282.13-28.75 286.07-18.9 289.43-10.7 294.77-28.65Q295.22-30.45 296.88-30.45L296.88-30.45Q297.27-30.45 298.18-30.2L298.18-30.2Q299.38-29.85 299.9-29.05 300.43-28.25 300.13-27.15L300.13-27.15Q297.88-19.5 295.55-11.75 293.22-4 290.97 3.6L290.97 3.6Q290.72 4.15 290.2 4.73 289.68 5.3 288.82 5.83 287.97 6.35 286.72 6.68 285.47 7 283.82 7L283.82 7Z" opacity="1" transform="matrix(1,0,0,1,0,0)" fill="#4b91f1" class="wordmark-text-0" data-fill-palette-color="quaternary" id="text-0"></path></svg></g></svg></g></svg></g></svg></g><g transform="matrix(1,0,0,1,53.38524300472999,0)"><svg viewBox="0 0 85.22951399054001 85.23370899544011" height="85.23370899544011" width="85.22951399054001"><g><svg xmlns="http://www.w3.org/2000/svg" xmlns:xlink="http://www.w3.org/1999/xlink" version="1.1" x="0" y="0" viewBox="0.35833266377449036 0.3587188720703125 89.28327178955078 89.28766632080078" enable-background="new 0 0 90 90" xml:space="preserve" height="85.23370899544011" width="85.22951399054001" class="icon-icon-0" data-fill-palette-color="quaternary" id="icon-0"><polygon points="57.928,58.169 57.875,76.027 45.397,63.548 45.397,45.639 " fill="#4b91f1" data-fill-palette-color="quaternary"></polygon><polygon points="76.027,57.875 58.475,57.927 45.826,45.279 63.432,45.279 " fill="#4b91f1" data-fill-palette-color="quaternary"></polygon><polygon points="76.027,32.125 63.432,44.721 45.707,44.721 58.355,32.073 " fill="#4b91f1" data-fill-palette-color="quaternary"></polygon><polygon points="44.838,45.59 44.838,63.314 32.125,76.027 32.074,58.355 " fill="#4b91f1" data-fill-palette-color="quaternary"></polygon><polygon points="57.928,31.712 45.397,44.243 45.397,26.452 57.875,13.974 " fill="#4b91f1" data-fill-palette-color="quaternary"></polygon><polygon points="44.838,26.687 44.838,44.291 32.074,31.526 32.125,13.974 " fill="#4b91f1" data-fill-palette-color="quaternary"></polygon><polygon points="44.479,44.721 26.569,44.721 13.974,32.125 31.832,32.073 " fill="#4b91f1" data-fill-palette-color="quaternary"></polygon><polygon points="44.36,45.279 31.712,57.927 13.974,57.875 26.569,45.279 " fill="#4b91f1" data-fill-palette-color="quaternary"></polygon><rect x="58.48" y="58.48" width="18.049" height="18.049" fill="#4b91f1" data-fill-palette-color="quaternary"></rect><polygon points="76.527,13.474 76.527,31.516 58.914,31.516 58.912,31.518 58.484,31.516 58.484,13.474 " fill="#4b91f1" data-fill-palette-color="quaternary"></polygon><polygon points="31.518,30.971 31.516,31.516 13.474,31.516 13.474,13.474 31.516,13.474 31.516,30.968 " fill="#4b91f1" data-fill-palette-color="quaternary"></polygon><rect x="13.471" y="58.48" width="18.05" height="18.049" fill="#4b91f1" data-fill-palette-color="quaternary"></rect><rect x="67.864" y="35.981" transform="matrix(0.7071 -0.7071 0.7071 0.7071 -9.3022 67.5465)" width="18.042" height="18.042" fill="#4b91f1" data-fill-palette-color="quaternary"></rect><rect x="35.979" y="4.094" transform="matrix(0.7071 -0.7071 0.7071 0.7071 3.9068 35.6621)" width="18.042" height="18.042" fill="#4b91f1" data-fill-palette-color="quaternary"></rect><rect x="4.095" y="35.98" transform="matrix(0.7071 -0.7071 0.7071 0.7071 -27.9787 22.4536)" width="18.041" height="18.041" fill="#4b91f1" data-fill-palette-color="quaternary"></rect><rect x="35.98" y="67.865" transform="matrix(0.7071 -0.7071 0.7071 0.7071 -41.1877 54.3437)" width="18.04" height="18.041" fill="#4b91f1" data-fill-palette-color="quaternary"></rect></svg></g></svg></g><g></g></svg></g></svg></g></svg></g><defs></defs></svg><rect width="320" height="360" fill="none" stroke="none" visibility="hidden"></rect></g></svg></g></svg>